<svg width="55" height="42" viewBox="0 0 55 42" fill="none" xmlns="http://www.w3.org/2000/svg">
<path d="M55 20.8413C55 21.4492 54.7586 22.0323 54.3288 22.4622C53.899 22.8921 53.3161 23.1336 52.7083 23.1336H2.29167C1.68388 23.1336 1.10098 22.8921 0.671214 22.4622C0.241443 22.0323 0 21.4492 0 20.8413C0 20.2333 0.241443 19.6502 0.671214 19.2203C1.10098 18.7904 1.68388 18.5489 2.29167 18.5489H52.7083C53.3161 18.5489 53.899 18.7904 54.3288 19.2203C54.7586 19.6502 55 20.2333 55 20.8413ZM2.29167 4.79469H52.7083C53.3161 4.79469 53.899 4.55318 54.3288 4.12327C54.7586 3.69337 55 3.1103 55 2.50233C55 1.89435 54.7586 1.31128 54.3288 0.88138C53.899 0.451478 53.3161 0.209961 52.7083 0.209961H2.29167C1.68388 0.209961 1.10098 0.451478 0.671214 0.88138C0.241443 1.31128 0 1.89435 0 2.50233C0 3.1103 0.241443 3.69337 0.671214 4.12327C1.10098 4.55318 1.68388 4.79469 2.29167 4.79469ZM52.7083 36.8878H2.29167C1.68388 36.8878 1.10098 37.1293 0.671214 37.5592C0.241443 37.9891 0 38.5722 0 39.1802C0 39.7882 0.241443 40.3712 0.671214 40.8011C1.10098 41.231 1.68388 41.4725 2.29167 41.4725H52.7083C53.3161 41.4725 53.899 41.231 54.3288 40.8011C54.7586 40.3712 55 39.7882 55 39.1802C55 38.5722 54.7586 37.9891 54.3288 37.5592C53.899 37.1293 53.3161 36.8878 52.7083 36.8878Z" fill="#6AAD71"/>
</svg>
