<svg width="55" height="50" viewBox="0 0 55 50" fill="none" xmlns="http://www.w3.org/2000/svg">
<path d="M22.7583 45.7393C22.7583 46.4897 22.5359 47.2233 22.1191 47.8472C21.7023 48.4712 21.1099 48.9575 20.4168 49.2447C19.7237 49.5319 18.9611 49.607 18.2253 49.4606C17.4895 49.3142 16.8137 48.9528 16.2832 48.4222C15.7527 47.8916 15.3915 47.2155 15.2451 46.4795C15.0987 45.7435 15.1739 44.9806 15.4609 44.2873C15.748 43.594 16.2342 43.0014 16.858 42.5845C17.4817 42.1676 18.2151 41.9451 18.9653 41.9451C19.9713 41.9451 20.936 42.3448 21.6474 43.0564C22.3587 43.7679 22.7583 44.733 22.7583 45.7393ZM43.6201 41.9451C42.8699 41.9451 42.1366 42.1676 41.5128 42.5845C40.8891 43.0014 40.4029 43.594 40.1158 44.2873C39.8287 44.9806 39.7536 45.7435 39.9 46.4795C40.0463 47.2155 40.4076 47.8916 40.938 48.4222C41.4685 48.9528 42.1444 49.3142 42.8801 49.4606C43.6159 49.607 44.3786 49.5319 45.0717 49.2447C45.7648 48.9575 46.3572 48.4712 46.7739 47.8472C47.1907 47.2233 47.4132 46.4897 47.4132 45.7393C47.4132 44.733 47.0136 43.7679 46.3022 43.0564C45.5909 42.3448 44.6261 41.9451 43.6201 41.9451ZM54.9163 12.1487L48.1528 34.1337C47.7986 35.2992 47.0782 36.3194 46.0986 37.043C45.119 37.7666 43.9323 38.1551 42.7145 38.1509H19.9301C18.695 38.1462 17.4945 37.7415 16.5086 36.9972C15.5226 36.2529 14.8043 35.2092 14.461 34.0223L5.88398 4.00295H1.89653C1.39354 4.00295 0.911148 3.80308 0.55548 3.4473C0.199812 3.09153 0 2.60899 0 2.10585C0 1.6027 0.199812 1.12017 0.55548 0.76439C0.911148 0.408613 1.39354 0.20874 1.89653 0.20874H5.88398C6.70757 0.211473 7.50812 0.480947 8.16582 0.976826C8.82351 1.4727 9.30297 2.16832 9.53242 2.95954L11.455 9.69427H53.1028C53.3996 9.69416 53.6922 9.76373 53.9572 9.89738C54.2223 10.031 54.4522 10.225 54.6286 10.4638C54.805 10.7025 54.923 10.9793 54.9729 11.272C55.0229 11.5646 55.0035 11.8649 54.9163 12.1487ZM50.5354 13.4885H12.5384L18.1071 32.9813C18.2204 33.3775 18.4596 33.726 18.7885 33.9742C19.1174 34.2223 19.5182 34.3566 19.9301 34.3567H42.7145C43.1204 34.3568 43.5155 34.2267 43.842 33.9856C44.1684 33.7444 44.4089 33.4049 44.5281 33.0168L50.5354 13.4885Z" fill="#6AAD71"/>
</svg>
