<svg width="55" height="48" viewBox="0 0 55 48" fill="none" xmlns="http://www.w3.org/2000/svg">
<path d="M39.7768 0.209717C34.7065 0.209717 30.2672 2.39074 27.5 6.07735C24.7328 2.39074 20.2935 0.209717 15.2232 0.209717C11.1872 0.214267 7.31772 1.82009 4.4638 4.67488C1.60988 7.52967 0.00454913 11.4003 0 15.4376C0 32.6303 25.4842 46.5466 26.5694 47.1214C26.8555 47.2753 27.1752 47.3558 27.5 47.3558C27.8248 47.3558 28.1445 47.2753 28.4306 47.1214C29.5158 46.5466 55 32.6303 55 15.4376C54.9954 11.4003 53.3901 7.52967 50.5362 4.67488C47.6823 1.82009 43.8128 0.214267 39.7768 0.209717ZM27.5 43.1425C23.0165 40.5292 3.92857 28.6244 3.92857 15.4376C3.93247 12.4423 5.12369 9.57089 7.241 7.45293C9.35831 5.33497 12.2289 4.14339 15.2232 4.13949C19.9989 4.13949 24.0085 6.68401 25.683 10.771C25.831 11.1314 26.0828 11.4396 26.4063 11.6565C26.7298 11.8734 27.1105 11.9893 27.5 11.9893C27.8895 11.9893 28.2702 11.8734 28.5937 11.6565C28.9172 11.4396 29.169 11.1314 29.317 10.771C30.9915 6.67665 35.0011 4.13949 39.7768 4.13949C42.7711 4.14339 45.6417 5.33497 47.759 7.45293C49.8763 9.57089 51.0675 12.4423 51.0714 15.4376C51.0714 28.6048 31.9786 40.5267 27.5 43.1425Z" fill="#6AAD71"/>
</svg>
