<svg width="55" height="55" viewBox="0 0 55 55" fill="none" xmlns="http://www.w3.org/2000/svg">
<path d="M27.5 15.3513C24.9897 15.3513 22.5358 16.0856 20.4485 17.4614C18.3613 18.8372 16.7345 20.7926 15.7738 23.0805C14.8132 25.3683 14.5618 27.8858 15.0516 30.3146C15.5413 32.7433 16.7501 34.9743 18.5252 36.7253C20.3002 38.4764 22.5618 39.6689 25.0239 40.152C27.4859 40.6351 30.0379 40.3871 32.3571 39.4395C34.6764 38.4918 36.6586 36.887 38.0533 34.828C39.4479 32.769 40.1923 30.3483 40.1923 27.8719C40.1888 24.5523 38.8505 21.3696 36.471 19.0223C34.0914 16.675 30.8651 15.3547 27.5 15.3513ZM27.5 36.219C25.8265 36.219 24.1905 35.7295 22.799 34.8123C21.4075 33.8951 20.323 32.5914 19.6826 31.0662C19.0421 29.541 18.8746 27.8627 19.201 26.2435C19.5275 24.6243 20.3334 23.137 21.5168 21.9696C22.7002 20.8023 24.2079 20.0073 25.8492 19.6852C27.4906 19.3631 29.1919 19.5284 30.7381 20.1602C32.2842 20.792 33.6057 21.8619 34.5355 23.2345C35.4653 24.6072 35.9615 26.221 35.9615 27.8719C35.9615 30.0857 35.0701 32.2088 33.4832 33.7742C31.8964 35.3396 29.7441 36.219 27.5 36.219ZM40.1923 0.743896H14.8077C10.8817 0.748039 7.11778 2.28836 4.34171 5.02688C1.56564 7.7654 0.00419963 11.4784 0 15.3513V40.3926C0.00419963 44.2654 1.56564 47.9784 4.34171 50.717C7.11778 53.4555 10.8817 54.9958 14.8077 54.9999H40.1923C44.1183 54.9958 47.8822 53.4555 50.6583 50.717C53.4344 47.9784 54.9958 44.2654 55 40.3926V15.3513C54.9958 11.4784 53.4344 7.7654 50.6583 5.02688C47.8822 2.28836 44.1183 0.748039 40.1923 0.743896ZM50.7692 40.3926C50.7692 43.1598 49.6549 45.8137 47.6713 47.7704C45.6878 49.7271 42.9975 50.8264 40.1923 50.8264H14.8077C12.0025 50.8264 9.31224 49.7271 7.32868 47.7704C5.34512 45.8137 4.23077 43.1598 4.23077 40.3926V15.3513C4.23077 12.5841 5.34512 9.93017 7.32868 7.97344C9.31224 6.01672 12.0025 4.91744 14.8077 4.91744H40.1923C42.9975 4.91744 45.6878 6.01672 47.6713 7.97344C49.6549 9.93017 50.7692 12.5841 50.7692 15.3513V40.3926ZM44.4231 14.3079C44.4231 14.927 44.237 15.5322 43.8883 16.0469C43.5397 16.5617 43.0441 16.9629 42.4643 17.1998C41.8845 17.4367 41.2465 17.4987 40.631 17.3779C40.0154 17.2571 39.4501 16.959 39.0063 16.5213C38.5625 16.0835 38.2603 15.5258 38.1379 14.9186C38.0155 14.3114 38.0783 13.682 38.3185 13.1101C38.5586 12.5381 38.9653 12.0492 39.4871 11.7053C40.0089 11.3613 40.6224 11.1778 41.25 11.1778C42.0916 11.1778 42.8986 11.5075 43.4937 12.0946C44.0888 12.6816 44.4231 13.4777 44.4231 14.3079Z" fill="#6AAD71"/>
</svg>
