<svg width="58" height="57" viewBox="0 0 58 57" fill="none" xmlns="http://www.w3.org/2000/svg">
<path d="M56.5333 52.3762L42.7845 38.8999C46.7694 34.2097 48.7566 28.1938 48.3324 22.1037C47.9083 16.0137 45.1056 10.3184 40.5074 6.20261C35.9092 2.08683 29.8694 -0.132563 23.6446 0.00612977C17.4198 0.144822 11.4891 2.63092 7.08636 6.94725C2.6836 11.2636 0.147722 17.0778 0.00625251 23.1805C-0.135217 29.2831 2.12861 35.2043 6.32681 39.7122C10.525 44.2202 16.3343 46.9679 22.5463 47.3837C28.7583 47.7995 34.8946 45.8514 39.6788 41.9446L53.4249 55.4236C53.629 55.6236 53.8713 55.7824 54.138 55.8907C54.4047 55.9989 54.6905 56.0547 54.9791 56.0547C55.2678 56.0547 55.5536 55.9989 55.8202 55.8907C56.0869 55.7824 56.3292 55.6236 56.5333 55.4236C56.7374 55.2235 56.8993 54.9859 57.0098 54.7245C57.1202 54.4631 57.1771 54.1828 57.1771 53.8999C57.1771 53.6169 57.1202 53.3367 57.0098 53.0753C56.8993 52.8138 56.7374 52.5763 56.5333 52.3762ZM4.45417 23.7493C4.45417 19.9158 5.6137 16.1683 7.78612 12.9809C9.95855 9.79346 13.0463 7.30916 16.6589 5.84214C20.2715 4.37512 24.2467 3.99128 28.0819 4.73916C31.917 5.48704 35.4398 7.33305 38.2048 10.0437C40.9697 12.7544 42.8527 16.2081 43.6156 19.9679C44.3784 23.7278 43.9869 27.6249 42.4905 31.1666C40.9941 34.7083 38.46 37.7355 35.2088 39.8653C31.9575 41.995 28.1351 43.1318 24.2248 43.1318C18.9831 43.1261 13.9577 41.0822 10.2513 37.4485C6.54482 33.8148 4.45998 28.8881 4.45417 23.7493Z" fill="#6AAD71"/>
</svg>
