<svg width="197" height="55" viewBox="0 0 197 55" fill="none" xmlns="http://www.w3.org/2000/svg">
<path d="M43.2645 32.2646L34.8021 28.0911C34.469 27.9274 34.098 27.8532 33.7266 27.8761C33.3551 27.899 32.9964 28.0181 32.6865 28.2215L28.8018 30.7778C27.0185 29.8108 25.551 28.3633 24.5706 26.6043L27.1622 22.7724C27.3684 22.4668 27.4892 22.113 27.5124 21.7466C27.5356 21.3802 27.4604 21.0142 27.2944 20.6857L23.0633 12.3386C22.8879 11.9892 22.6168 11.6953 22.2808 11.4902C21.9447 11.285 21.5571 11.1768 21.1619 11.1778C18.3564 11.1778 15.6659 12.2771 13.6821 14.2338C11.6984 16.1905 10.5839 18.8444 10.5839 21.6117C10.5909 27.6975 13.045 33.532 17.4077 37.8353C21.7705 42.1386 27.6856 44.5592 33.8554 44.5662C35.2445 44.5662 36.62 44.2963 37.9034 43.7719C39.1868 43.2476 40.3529 42.479 41.3351 41.5101C42.3174 40.5413 43.0966 39.3911 43.6282 38.1252C44.1597 36.8593 44.4333 35.5025 44.4333 34.1323C44.4336 33.7446 44.3244 33.3645 44.118 33.0346C43.9115 32.7048 43.616 32.4381 43.2645 32.2646ZM33.8554 40.3926C28.8073 40.3871 23.9676 38.4066 20.3981 34.8857C16.8285 31.3648 14.8207 26.591 14.8151 21.6117C14.8147 20.1643 15.3228 18.7615 16.2528 17.642C17.1829 16.5224 18.4775 15.7554 19.9163 15.4713L22.9522 21.4708L20.3685 25.2635C20.1755 25.5492 20.0568 25.8774 20.0232 26.2191C19.9895 26.5609 20.0418 26.9055 20.1755 27.2225C21.6891 30.771 24.5511 33.5939 28.1486 35.087C28.471 35.2247 28.823 35.2811 29.1729 35.251C29.5229 35.221 29.8598 35.1054 30.1531 34.9148L34.0167 32.3742L40.099 35.3687C39.8088 36.7896 39.0278 38.0671 37.8891 38.9833C36.7505 39.8995 35.3248 40.3976 33.8554 40.3926ZM27.5086 0.743958C22.7604 0.742936 18.0927 1.95451 13.96 4.26076C9.82732 6.56701 6.37034 9.88937 3.92558 13.9044C1.48082 17.9195 0.131567 22.4905 0.00914448 27.1725C-0.113278 31.8546 0.995303 36.4881 3.22699 40.6222L0.225495 49.504C-0.0231269 50.2393 -0.0592078 51.0285 0.121297 51.7829C0.301801 52.5374 0.691758 53.2273 1.24746 53.7755C1.80316 54.3236 2.50265 54.7082 3.26752 54.8863C4.03239 55.0643 4.83242 55.0287 5.57793 54.7835L14.5824 51.8229C18.2708 53.758 22.3578 54.8388 26.5329 54.9833C30.7081 55.1278 34.8617 54.3322 38.6786 52.6569C42.4955 50.9816 45.8753 48.4706 48.5614 45.3145C51.2476 42.1584 53.1695 38.4401 54.1812 34.442C55.193 30.4439 55.2681 26.2709 54.4008 22.2399C53.5334 18.2089 51.7465 14.4257 49.1755 11.1776C46.6046 7.92948 43.3172 5.30178 39.563 3.49394C35.8088 1.6861 31.6864 0.745648 27.5086 0.743958ZM27.5086 50.8265C23.4176 50.8292 19.3983 49.7665 15.857 47.7459C15.5978 47.5976 15.3095 47.5053 15.0113 47.4752C14.7132 47.445 14.4119 47.4777 14.1276 47.5711L4.23718 50.8265L7.53485 41.0708C7.62991 40.7905 7.66351 40.4934 7.63342 40.1993C7.60333 39.9053 7.51024 39.6208 7.36032 39.3649C4.79509 34.9903 3.76516 29.9029 4.4303 24.892C5.09545 19.8811 7.41848 15.2267 11.039 11.651C14.6596 8.07522 19.3752 5.77795 24.4545 5.11554C29.5338 4.45313 34.6927 5.4626 39.131 7.98736C43.5692 10.5121 47.0388 14.411 49.0013 19.0792C50.9639 23.7475 51.3097 28.9241 49.9853 33.806C48.6608 38.6878 45.74 43.0022 41.6761 46.0796C37.6121 49.1571 32.6321 50.8256 27.5086 50.8265Z" fill="#6AAD71"/>
<path d="M98.5 15.3514C95.9897 15.3514 93.5358 16.0857 91.4485 17.4615C89.3613 18.8372 87.7345 20.7927 86.7738 23.0805C85.8132 25.3684 85.5618 27.8859 86.0516 30.3146C86.5413 32.7434 87.7501 34.9744 89.5252 36.7254C91.3002 38.4764 93.5618 39.6689 96.0239 40.152C98.4859 40.6351 101.038 40.3872 103.357 39.4395C105.676 38.4919 107.659 36.8871 109.053 34.8281C110.448 32.7691 111.192 30.3483 111.192 27.872C111.189 24.5524 109.85 21.3697 107.471 19.0224C105.091 16.6751 101.865 15.3548 98.5 15.3514ZM98.5 36.2191C96.8265 36.2191 95.1905 35.7295 93.799 34.8123C92.4075 33.8951 91.323 32.5915 90.6826 31.0663C90.0421 29.541 89.8746 27.8627 90.201 26.2435C90.5275 24.6244 91.3334 23.1371 92.5168 21.9697C93.7002 20.8023 95.2079 20.0074 96.8492 19.6853C98.4906 19.3632 100.192 19.5285 101.738 20.1603C103.284 20.7921 104.606 21.8619 105.536 23.2346C106.465 24.6073 106.962 26.2211 106.962 27.872C106.962 30.0858 106.07 32.2089 104.483 33.7743C102.896 35.3396 100.744 36.2191 98.5 36.2191ZM111.192 0.743958H85.8077C81.8817 0.7481 78.1178 2.28842 75.3417 5.02694C72.5656 7.76546 71.0042 11.4785 71 15.3514V40.3926C71.0042 44.2655 72.5656 47.9785 75.3417 50.717C78.1178 53.4555 81.8817 54.9959 85.8077 55H111.192C115.118 54.9959 118.882 53.4555 121.658 50.717C124.434 47.9785 125.996 44.2655 126 40.3926V15.3514C125.996 11.4785 124.434 7.76546 121.658 5.02694C118.882 2.28842 115.118 0.7481 111.192 0.743958ZM121.769 40.3926C121.769 43.1598 120.655 45.8137 118.671 47.7705C116.688 49.7272 113.997 50.8265 111.192 50.8265H85.8077C83.0025 50.8265 80.3122 49.7272 78.3287 47.7705C76.3451 45.8137 75.2308 43.1598 75.2308 40.3926V15.3514C75.2308 12.5841 76.3451 9.93023 78.3287 7.97351C80.3122 6.01678 83.0025 4.9175 85.8077 4.9175H111.192C113.997 4.9175 116.688 6.01678 118.671 7.97351C120.655 9.93023 121.769 12.5841 121.769 15.3514V40.3926ZM115.423 14.308C115.423 14.9271 115.237 15.5322 114.888 16.047C114.54 16.5617 114.044 16.9629 113.464 17.1999C112.884 17.4368 112.246 17.4988 111.631 17.378C111.015 17.2572 110.45 16.9591 110.006 16.5213C109.563 16.0836 109.26 15.5258 109.138 14.9186C109.015 14.3114 109.078 13.6821 109.318 13.1101C109.559 12.5381 109.965 12.0493 110.487 11.7053C111.009 11.3614 111.622 11.1778 112.25 11.1778C113.092 11.1778 113.899 11.5076 114.494 12.0946C115.089 12.6816 115.423 13.4778 115.423 14.308Z" fill="#6AAD71"/>
<path d="M178.447 25.8189L166.662 15.9542C166.366 15.7063 166.022 15.564 165.666 15.5424C165.311 15.5207 164.958 15.6207 164.644 15.8314C164.331 16.0422 164.069 16.356 163.886 16.7392C163.703 17.1224 163.607 17.5607 163.607 18.0073V37.7367C163.607 38.1833 163.703 38.6216 163.886 39.0048C164.069 39.388 164.331 39.7017 164.644 39.9125C164.958 40.1233 165.311 40.2232 165.666 40.2016C166.022 40.18 166.366 40.0377 166.662 39.7898L178.447 29.9251C178.717 29.7 178.938 29.3947 179.091 29.0366C179.243 28.6784 179.323 28.2783 179.323 27.872C179.323 27.4657 179.243 27.0656 179.091 26.7074C178.938 26.3492 178.717 26.044 178.447 25.8189ZM167.536 33.128V22.6314L173.817 27.872L167.536 33.128ZM195.608 9.84419C195.376 8.70773 194.933 7.65662 194.315 6.77759C193.696 5.89855 192.92 5.21677 192.05 4.78851C183.633 0.706976 170.237 0.743969 169.5 0.743969C168.763 0.743969 155.367 0.706976 146.95 4.78851C146.08 5.21677 145.304 5.89855 144.685 6.77759C144.067 7.65662 143.624 8.70773 143.392 9.84419C142.756 12.9208 142 18.5437 142 27.872C142 37.2003 142.756 42.8232 143.392 45.8998C143.623 47.0368 144.066 48.0885 144.685 48.9681C145.304 49.8477 146.08 50.53 146.95 50.9586C155.013 54.8644 167.634 55 169.338 55H169.662C171.366 55 183.994 54.8644 192.05 50.9586C192.92 50.53 193.696 49.8477 194.315 48.9681C194.934 48.0885 195.377 47.0368 195.608 45.8998C196.244 42.8171 197 37.2003 197 27.872C197 18.5437 196.244 12.9208 195.608 9.84419ZM191.804 44.679C191.73 45.0573 191.584 45.4078 191.381 45.702C191.177 45.9962 190.921 46.2256 190.633 46.3714C182.862 50.1385 169.645 50.0707 169.517 50.0707H169.5C169.367 50.0707 156.16 50.1324 148.384 46.3714C148.096 46.2256 147.84 45.9962 147.636 45.702C147.433 45.4078 147.288 45.0573 147.213 44.679C146.616 41.8645 145.929 36.6794 145.929 27.872C145.929 19.0646 146.616 13.8795 147.196 11.0804C147.269 10.6999 147.414 10.3468 147.617 10.0504C147.821 9.75397 148.078 9.52266 148.367 9.37561C155.86 5.74107 168.417 5.67634 169.446 5.67634H169.512C169.645 5.67634 182.865 5.62085 190.628 9.37561C190.916 9.52146 191.172 9.75088 191.376 10.0451C191.58 10.3392 191.725 10.6898 191.8 11.068C192.384 13.8795 193.071 19.0646 193.071 27.872C193.071 36.6794 192.384 41.8645 191.804 44.6636V44.679Z" fill="#6AAD71"/>
</svg>
