<svg width="190" height="55" viewBox="0 0 190 55" fill="none" xmlns="http://www.w3.org/2000/svg">
<path d="M41.6171 31.5207L33.477 27.3471C33.1566 27.1834 32.7997 27.1092 32.4424 27.1321C32.0851 27.155 31.74 27.2742 31.442 27.4776L27.7051 30.0339C25.9897 29.0669 24.5781 27.6193 23.6351 25.8603L26.128 22.0285C26.3263 21.7229 26.4425 21.369 26.4648 21.0026C26.4872 20.6362 26.4148 20.2703 26.2552 19.9417L22.1851 11.5946C22.0164 11.2453 21.7556 10.9514 21.4324 10.7462C21.1091 10.541 20.7363 10.4328 20.3561 10.4339C17.6575 10.4339 15.0694 11.5331 13.1612 13.4899C11.253 15.4466 10.1809 18.1005 10.1809 20.8677C10.1877 26.9535 12.5483 32.7881 16.7449 37.0914C20.9415 41.3947 26.6314 43.8153 32.5663 43.8222C33.9025 43.8222 35.2257 43.5523 36.4602 43.028C37.6947 42.5036 38.8164 41.7351 39.7613 40.7662C40.7061 39.7973 41.4556 38.6471 41.967 37.3812C42.4783 36.1153 42.7415 34.7585 42.7415 33.3883C42.7418 33.0007 42.6367 32.6206 42.4381 32.2907C42.2395 31.9608 41.9552 31.6942 41.6171 31.5207ZM32.5663 39.6487C27.7105 39.6431 23.055 37.6627 19.6214 34.1417C16.1878 30.6208 14.2564 25.847 14.251 20.8677C14.2506 19.4203 14.7393 18.0175 15.634 16.898C16.5286 15.7785 17.7739 15.0114 19.158 14.7274L22.0783 20.7269L19.593 24.5196C19.4073 24.8052 19.2931 25.1335 19.2608 25.4752C19.2284 25.8169 19.2787 26.1615 19.4073 26.4785C20.8633 30.027 23.6163 32.85 27.0768 34.343C27.3869 34.4808 27.7255 34.5371 28.0622 34.5071C28.3988 34.477 28.7228 34.3615 29.005 34.1709L32.7215 31.6302L38.5722 34.6248C38.2931 36.0456 37.5417 37.3232 36.4465 38.2394C35.3512 39.1556 33.9798 39.6536 32.5663 39.6487ZM26.4612 6.46053e-07C21.8938 -0.00102137 17.4038 1.21056 13.4285 3.51681C9.45313 5.82306 6.12779 9.14541 3.77611 13.1605C1.42444 17.1756 0.126558 21.7466 0.00879629 26.4286C-0.108965 31.1106 0.957406 35.7442 3.10411 39.8782L0.216909 48.76C-0.0222463 49.4954 -0.0569534 50.2845 0.116678 51.039C0.29031 51.7934 0.665419 52.4834 1.19996 53.0315C1.7345 53.5796 2.40736 53.9643 3.1431 54.1423C3.87885 54.3204 4.64842 54.2848 5.36555 54.0395L14.0272 51.0789C17.5752 53.014 21.5065 54.0949 25.5226 54.2394C29.5388 54.3839 33.5343 53.5883 37.2059 51.9129C40.8774 50.2376 44.1285 47.7266 46.7124 44.5705C49.2962 41.4144 51.145 37.6962 52.1182 33.698C53.0915 29.6999 53.1637 25.527 52.3294 21.4959C51.4951 17.4649 49.7761 13.6817 47.3031 10.4336C44.8301 7.18553 41.6679 4.55782 38.0566 2.74998C34.4453 0.942147 30.4799 0.00169089 26.4612 6.46053e-07ZM26.4612 50.0825C22.5259 50.0853 18.6597 49.0226 15.2533 47.0019C15.0039 46.8536 14.7266 46.7613 14.4398 46.7312C14.153 46.7011 13.8632 46.7338 13.5896 46.8271L4.07584 50.0825L7.24795 40.3269C7.33939 40.0465 7.37171 39.7495 7.34276 39.4554C7.31382 39.1613 7.22428 38.8769 7.08006 38.6209C4.61251 34.2463 3.6218 29.1589 4.26161 24.148C4.90143 19.1371 7.13601 14.4828 10.6187 10.907C14.1014 7.33126 18.6375 5.034 23.5234 4.37158C28.4092 3.70917 33.3717 4.71865 37.641 7.2434C41.9103 9.76816 45.2477 13.6671 47.1355 18.3353C49.0234 23.0035 49.3561 28.1801 48.082 33.062C46.808 37.9439 43.9984 42.2582 40.0892 45.3357C36.18 48.4131 31.3896 50.0817 26.4612 50.0825Z" fill="white"/>
<path d="M94.7493 14.6074C92.3346 14.6074 89.9741 15.3417 87.9663 16.7175C85.9586 18.0933 84.3937 20.0487 83.4696 22.3366C82.5455 24.6244 82.3038 27.1419 82.7749 29.5707C83.2459 31.9994 84.4087 34.2304 86.1162 35.9814C87.8237 37.7325 89.9991 38.925 92.3674 39.4081C94.7357 39.8912 97.1906 39.6432 99.4215 38.6956C101.652 37.7479 103.559 36.1431 104.901 34.0841C106.242 32.0251 106.958 29.6044 106.958 27.128C106.955 23.8084 105.668 20.6257 103.379 18.2784C101.09 15.9311 97.9863 14.6109 94.7493 14.6074ZM94.7493 35.4751C93.1395 35.4751 91.5658 34.9856 90.2273 34.0684C88.8888 33.1512 87.8456 31.8475 87.2295 30.3223C86.6135 28.7971 86.4523 27.1188 86.7663 25.4996C87.0804 23.8804 87.8556 22.3931 88.9939 21.2257C90.1322 20.0584 91.5825 19.2634 93.1614 18.9413C94.7403 18.6193 96.3768 18.7846 97.8641 19.4163C99.3514 20.0481 100.623 21.118 101.517 22.4906C102.411 23.8633 102.889 25.4771 102.889 27.128C102.889 29.3418 102.031 31.4649 100.505 33.0303C98.9783 34.5957 96.908 35.4751 94.7493 35.4751ZM106.958 0H82.5403C78.7638 0.00414283 75.1432 1.54446 72.4728 4.28298C69.8024 7.02151 68.3004 10.7345 68.2964 14.6074V39.6487C68.3004 43.5215 69.8024 47.2345 72.4728 49.9731C75.1432 52.7116 78.7638 54.2519 82.5403 54.2561H106.958C110.735 54.2519 114.355 52.7116 117.026 49.9731C119.696 47.2345 121.198 43.5215 121.202 39.6487V14.6074C121.198 10.7345 119.696 7.02151 117.026 4.28298C114.355 1.54446 110.735 0.00414283 106.958 0ZM117.133 39.6487C117.133 42.4159 116.061 45.0698 114.153 47.0265C112.245 48.9832 109.657 50.0825 106.958 50.0825H82.5403C79.8419 50.0825 77.254 48.9832 75.346 47.0265C73.438 45.0698 72.3661 42.4159 72.3661 39.6487V14.6074C72.3661 11.8402 73.438 9.18628 75.346 7.22955C77.254 5.27282 79.8419 4.17354 82.5403 4.17354H106.958C109.657 4.17354 112.245 5.27282 114.153 7.22955C116.061 9.18628 117.133 11.8402 117.133 14.6074V39.6487ZM111.028 13.564C111.028 14.1831 110.849 14.7883 110.514 15.303C110.178 15.8178 109.702 16.219 109.144 16.4559C108.586 16.6928 107.972 16.7548 107.38 16.634C106.788 16.5132 106.244 16.2151 105.817 15.7774C105.391 15.3396 105.1 14.7819 104.982 14.1747C104.864 13.5675 104.925 12.9381 105.156 12.3662C105.387 11.7942 105.778 11.3053 106.28 10.9614C106.782 10.6174 107.372 10.4339 107.976 10.4339C108.785 10.4339 109.562 10.7636 110.134 11.3507C110.706 11.9377 111.028 12.7338 111.028 13.564Z" fill="white"/>
<path d="M171.653 25.0749L160.316 15.2102C160.031 14.9623 159.7 14.82 159.359 14.7984C159.017 14.7768 158.677 14.8767 158.375 15.0875C158.074 15.2983 157.822 15.612 157.646 15.9952C157.47 16.3784 157.377 16.8167 157.378 17.2633V36.9928C157.377 37.4394 157.47 37.8776 157.646 38.2608C157.822 38.6441 158.074 38.9578 158.375 39.1686C158.677 39.3794 159.017 39.4793 159.359 39.4577C159.7 39.4361 160.031 39.2937 160.316 39.0459L171.653 29.1811C171.912 28.956 172.125 28.6508 172.272 28.2926C172.419 27.9344 172.495 27.5344 172.495 27.128C172.495 26.7217 172.419 26.3216 172.272 25.9635C172.125 25.6053 171.912 25.3001 171.653 25.0749ZM161.157 32.3841V21.8874L167.198 27.128L161.157 32.3841ZM188.16 9.10023C187.937 7.96377 187.511 6.91267 186.916 6.03363C186.321 5.15459 185.574 4.47282 184.738 4.04455C176.641 -0.0369813 163.755 1.17265e-05 163.046 1.17265e-05C162.338 1.17265e-05 149.451 -0.0369813 141.355 4.04455C140.518 4.47282 139.771 5.15459 139.176 6.03363C138.581 6.91267 138.155 7.96377 137.932 9.10023C137.321 12.1768 136.593 17.7997 136.593 27.128C136.593 36.4564 137.321 42.0793 137.932 45.1558C138.155 46.2929 138.581 47.3446 139.176 48.2242C139.771 49.1038 140.518 49.786 141.355 50.2146C149.111 54.1204 161.251 54.2561 162.89 54.2561H163.202C164.841 54.2561 176.988 54.1204 184.738 50.2146C185.574 49.786 186.321 49.1038 186.916 48.2242C187.511 47.3446 187.938 46.2929 188.16 45.1558C188.772 42.0731 189.499 36.4564 189.499 27.128C189.499 17.7997 188.772 12.1768 188.16 9.10023ZM184.501 43.9351C184.429 44.3133 184.29 44.6639 184.094 44.958C183.898 45.2522 183.652 45.4816 183.375 45.6275C175.899 49.3946 163.186 49.3268 163.063 49.3268H163.046C162.919 49.3268 150.214 49.3884 142.734 45.6275C142.457 45.4816 142.211 45.2522 142.015 44.958C141.819 44.6639 141.679 44.3133 141.608 43.9351C141.034 41.1205 140.372 35.9354 140.372 27.128C140.372 18.3207 141.034 13.1355 141.591 10.3364C141.662 9.95594 141.801 9.60289 141.997 9.30645C142.192 9.01001 142.44 8.7787 142.718 8.63166C149.926 4.99712 162.005 4.93238 162.994 4.93238H163.058C163.186 4.93238 175.902 4.87689 183.37 8.63166C183.647 8.77751 183.893 9.00693 184.089 9.30111C184.285 9.59529 184.425 9.94586 184.497 10.3241C185.059 13.1355 185.72 18.3207 185.72 27.128C185.72 35.9354 185.059 41.1205 184.501 43.9197V43.9351Z" fill="white"/>
</svg>
