<svg width="55" height="55" viewBox="0 0 55 55" fill="none" xmlns="http://www.w3.org/2000/svg">
<path d="M36.4473 25.8188L24.6616 15.9541C24.3657 15.7062 24.0218 15.5639 23.6665 15.5423C23.3112 15.5207 22.9579 15.6206 22.6443 15.8314C22.3307 16.0422 22.0686 16.3559 21.8859 16.7391C21.7033 17.1223 21.6069 17.5606 21.6071 18.0072V37.7367C21.6069 38.1833 21.7033 38.6215 21.8859 39.0047C22.0686 39.388 22.3307 39.7017 22.6443 39.9125C22.9579 40.1233 23.3112 40.2232 23.6665 40.2016C24.0218 40.18 24.3657 40.0376 24.6616 39.7898L36.4473 29.925C36.7168 29.6999 36.9377 29.3947 37.0905 29.0365C37.2434 28.6783 37.3233 28.2783 37.3233 27.8719C37.3233 27.4656 37.2434 27.0655 37.0905 26.7074C36.9377 26.3492 36.7168 26.044 36.4473 25.8188ZM25.5357 33.128V22.6313L31.8165 27.8719L25.5357 33.128ZM53.6078 9.84413C53.3765 8.70767 52.9332 7.65656 52.3146 6.77753C51.696 5.89849 50.9198 5.21671 50.05 4.78845C41.633 0.706915 28.2366 0.743908 27.5 0.743908C26.7634 0.743908 13.367 0.706915 4.95 4.78845C4.08022 5.21671 3.30401 5.89849 2.68541 6.77753C2.06681 7.65656 1.62355 8.70767 1.39219 9.84413C0.75625 12.9207 0 18.5436 0 27.8719C0 37.2003 0.75625 42.8232 1.39219 45.8997C1.6232 47.0368 2.06631 48.0885 2.68493 48.9681C3.30355 49.8477 4.07994 50.5299 4.95 50.9585C13.0134 54.8643 25.6339 55 27.3379 55H27.6621C29.3661 55 41.994 54.8643 50.05 50.9585C50.9201 50.5299 51.6964 49.8477 52.3151 48.9681C52.9337 48.0885 53.3768 47.0368 53.6078 45.8997C54.2438 42.817 55 37.2003 55 27.8719C55 18.5436 54.2438 12.9207 53.6078 9.84413ZM49.8045 44.679C49.7296 45.0572 49.5845 45.4078 49.3809 45.7019C49.1773 45.9961 48.9211 46.2255 48.6333 46.3714C40.8621 50.1385 27.6449 50.0707 27.5172 50.0707H27.5C27.3674 50.0707 14.16 50.1323 6.38393 46.3714C6.09609 46.2255 5.83987 45.9961 5.63629 45.7019C5.43271 45.4078 5.28755 45.0572 5.21272 44.679C4.61607 41.8644 3.92857 36.6793 3.92857 27.8719C3.92857 19.0646 4.61607 13.8794 5.19554 11.0803C5.26897 10.6998 5.4135 10.3468 5.61716 10.0503C5.82082 9.75391 6.07776 9.5226 6.36674 9.37555C13.8605 5.74101 26.4172 5.67628 27.446 5.67628H27.5123C27.6449 5.67628 40.8645 5.62079 48.6283 9.37555C48.9162 9.5214 49.1724 9.75082 49.376 10.045C49.5796 10.3392 49.7247 10.6898 49.7996 11.068C50.3839 13.8794 51.0714 19.0646 51.0714 27.8719C51.0714 36.6793 50.3839 41.8644 49.8045 44.6636V44.679Z" fill="#6AAD71"/>
</svg>
