<svg width="55" height="55" viewBox="0 0 55 55" fill="none" xmlns="http://www.w3.org/2000/svg">
<path d="M43.2645 32.2646L34.8021 28.091C34.469 27.9273 34.098 27.8531 33.7266 27.876C33.3551 27.8989 32.9964 28.0181 32.6865 28.2215L28.8018 30.7778C27.0185 29.8108 25.551 28.3632 24.5706 26.6042L27.1622 22.7724C27.3684 22.4668 27.4892 22.1129 27.5124 21.7465C27.5356 21.3801 27.4604 21.0142 27.2944 20.6856L23.0633 12.3385C22.8879 11.9892 22.6168 11.6953 22.2808 11.4901C21.9447 11.2849 21.5571 11.1767 21.1619 11.1778C18.3564 11.1778 15.6659 12.277 13.6821 14.2338C11.6984 16.1905 10.5839 18.8444 10.5839 21.6116C10.5909 27.6974 13.045 33.532 17.4077 37.8353C21.7705 42.1386 27.6856 44.5592 33.8554 44.5661C35.2445 44.5661 36.62 44.2962 37.9034 43.7719C39.1868 43.2475 40.3529 42.479 41.3351 41.5101C42.3174 40.5412 43.0966 39.391 43.6282 38.1251C44.1597 36.8592 44.4333 35.5024 44.4333 34.1322C44.4336 33.7446 44.3244 33.3645 44.118 33.0346C43.9115 32.7047 43.616 32.4381 43.2645 32.2646ZM33.8554 40.3926C28.8073 40.387 23.9676 38.4066 20.3981 34.8856C16.8285 31.3647 14.8207 26.5909 14.8151 21.6116C14.8147 20.1642 15.3228 18.7614 16.2528 17.6419C17.1829 16.5224 18.4775 15.7553 19.9163 15.4713L22.9522 21.4708L20.3685 25.2635C20.1755 25.5491 20.0568 25.8774 20.0232 26.2191C19.9895 26.5608 20.0418 26.9054 20.1755 27.2224C21.6891 30.7709 24.5511 33.5939 28.1486 35.0869C28.471 35.2246 28.823 35.281 29.1729 35.251C29.5229 35.2209 29.8598 35.1054 30.1531 34.9148L34.0167 32.3741L40.099 35.3686C39.8088 36.7895 39.0278 38.0671 37.8891 38.9833C36.7505 39.8995 35.3248 40.3975 33.8554 40.3926ZM27.5086 0.743897C22.7604 0.742875 18.0927 1.95445 13.96 4.2607C9.82732 6.56695 6.37034 9.88931 3.92558 13.9044C1.48082 17.9195 0.131567 22.4905 0.00914448 27.1725C-0.113278 31.8545 0.995303 36.4881 3.22699 40.6221L0.225495 49.5039C-0.0231269 50.2393 -0.0592078 51.0284 0.121297 51.7829C0.301801 52.5373 0.691758 53.2273 1.24746 53.7754C1.80316 54.3235 2.50265 54.7082 3.26752 54.8862C4.03239 55.0643 4.83242 55.0287 5.57793 54.7834L14.5824 51.8228C18.2708 53.7579 22.3578 54.8388 26.5329 54.9833C30.7081 55.1278 34.8617 54.3322 38.6786 52.6568C42.4955 50.9815 45.8753 48.4705 48.5614 45.3144C51.2476 42.1583 53.1695 38.4401 54.1812 34.4419C55.193 30.4438 55.2681 26.2708 54.4008 22.2398C53.5334 18.2088 51.7465 14.4256 49.1755 11.1775C46.6046 7.92942 43.3172 5.30172 39.563 3.49388C35.8088 1.68604 31.6864 0.745587 27.5086 0.743897ZM27.5086 50.8264C23.4176 50.8292 19.3983 49.7665 15.857 47.7458C15.5978 47.5975 15.3095 47.5052 15.0113 47.4751C14.7132 47.445 14.4119 47.4777 14.1276 47.571L4.23718 50.8264L7.53485 41.0708C7.62991 40.7904 7.66351 40.4934 7.63342 40.1993C7.60333 39.9052 7.51024 39.6208 7.36032 39.3648C4.79509 34.9902 3.76516 29.9028 4.4303 24.8919C5.09545 19.881 7.41848 15.2267 11.039 11.6509C14.6596 8.07516 19.3752 5.77789 24.4545 5.11548C29.5338 4.45307 34.6927 5.46254 39.131 7.9873C43.5692 10.5121 47.0388 14.411 49.0013 19.0792C50.9639 23.7474 51.3097 28.924 49.9853 33.8059C48.6608 38.6878 45.74 43.0021 41.6761 46.0796C37.6121 49.157 32.6321 50.8256 27.5086 50.8264Z" fill="#6AAD71"/>
</svg>
